HIERARCHY
ROOT Hips
{
	OFFSET 0.000000 83.214638 0.000000
	CHANNELS 6 Xposition Yposition Zposition Xrotation Yrotation Zrotation
	JOINT Pelvis
	{
		OFFSET 0.000000 0.000000 0.000000
		CHANNELS 3 Xrotation Yrotation Zrotation
		JOINT LeftUpLeg
		{
			OFFSET 8.479700 -4.795502 -0.379100
			CHANNELS 3 Xrotation Yrotation Zrotation
			JOINT LeftLeg
			{
				OFFSET 0.024144 -32.555107 0.112900
				CHANNELS 3 Xrotation Yrotation Zrotation
				JOINT LeftFoot
				{
					OFFSET -0.024144 -32.638630 -3.012600
					CHANNELS 3 Xrotation Yrotation Zrotation
					JOINT LeftToeBase
					{
						OFFSET 0.970200 -13.225400 11.864200
						CHANNELS 3 Xrotation Yrotation Zrotation
						End Site
						{
							OFFSET 0.000000 12.319262 0.000000
						}
					}
					JOINT LFootTongue
					{
						OFFSET 1.142400 -1.059800 6.665200
						CHANNELS 3 Xrotation Yrotation Zrotation
						End Site
						{
							OFFSET 0.000000 12.319262 0.000000
						}
					}
				}
				JOINT LeftPantLeg
				{
					OFFSET 0.918482 -16.533964 -2.284700
					CHANNELS 3 Xrotation Yrotation Zrotation
					End Site
					{
						OFFSET 0.350399 24.744368 0.000000
					}
				}
			}
		}
		JOINT RightUpLeg
		{
			OFFSET -8.479700 -4.795502 -0.379100
			CHANNELS 3 Xrotation Yrotation Zrotation
			JOINT RightLeg
			{
				OFFSET -0.023144 -32.555092 0.112900
				CHANNELS 3 Xrotation Yrotation Zrotation
				JOINT RightFoot
				{
					OFFSET 0.023144 -32.638641 -3.012700
					CHANNELS 3 Xrotation Yrotation Zrotation
					JOINT RightToeBase
					{
						OFFSET -0.970200 -13.225400 11.864200
						CHANNELS 3 Xrotation Yrotation Zrotation
						End Site
						{
							OFFSET 0.000000 12.319244 0.000000
						}
					}
					JOINT RFootTongue
					{
						OFFSET -1.142200 -1.059800 6.665200
						CHANNELS 3 Xrotation Yrotation Zrotation
						End Site
						{
							OFFSET 0.000000 12.319243 0.000000
						}
					}
				}
				JOINT RightPantLeg
				{
					OFFSET -0.919482 -16.533978 -2.284800
					CHANNELS 3 Xrotation Yrotation Zrotation
					End Site
					{
						OFFSET -0.350400 24.744419 0.000000
					}
				}
			}
		}
	}
	JOINT Spine
	{
		OFFSET 0.000000 7.722000 1.166200
		CHANNELS 3 Xrotation Yrotation Zrotation
		JOINT Spine1
		{
			OFFSET 0.000000 12.024101 0.248800
			CHANNELS 3 Xrotation Yrotation Zrotation
			JOINT Spine2
			{
				OFFSET 0.000000 11.502998 -0.491200
				CHANNELS 3 Xrotation Yrotation Zrotation
				JOINT Neck
				{
					OFFSET 0.000000 18.430702 -3.123100
					CHANNELS 3 Xrotation Yrotation Zrotation
					JOINT Head
					{
						OFFSET 0.000000 9.051102 1.034000
						CHANNELS 3 Xrotation Yrotation Zrotation
						JOINT HairB
						{
							OFFSET 0.208400 24.786102 24.822300
							CHANNELS 3 Xrotation Yrotation Zrotation
							End Site
							{
								OFFSET 0.000000 32.263779 0.000000
							}
						}
						JOINT HairA
						{
							OFFSET -7.081100 24.428299 23.196600
							CHANNELS 3 Xrotation Yrotation Zrotation
							End Site
							{
								OFFSET 0.000000 32.263779 0.000000
							}
						}
						JOINT Hat
						{
							OFFSET 16.728800 15.048294 -15.439601
							CHANNELS 3 Xrotation Yrotation Zrotation
							End Site
							{
								OFFSET 0.000000 32.263779 0.000000
							}
						}
					}
				}
				JOINT LeftShoulder
				{
					OFFSET 6.197800 13.665199 -4.064700
					CHANNELS 3 Xrotation Yrotation Zrotation
					JOINT LeftArm
					{
						OFFSET 7.778100 -0.187103 -1.709300
						CHANNELS 3 Xrotation Yrotation Zrotation
						JOINT LeftForeArm
						{
							OFFSET 22.049376 0.000000 0.000000
							CHANNELS 3 Xrotation Yrotation Zrotation
							JOINT LeftHand
							{
								OFFSET 23.009392 0.000000 0.000000
								CHANNELS 3 Xrotation Yrotation Zrotation
								JOINT LeftHandThumb1
								{
									OFFSET 3.507191 -2.063065 3.133727
									CHANNELS 3 Xrotation Yrotation Zrotation
									JOINT LeftHandThumb2
									{
										OFFSET 3.101337 -1.790558 1.790558
										CHANNELS 3 Xrotation Yrotation Zrotation
										JOINT LeftHandThumb3
										{
											OFFSET 3.058640 -1.765907 1.765906
											CHANNELS 3 Xrotation Yrotation Zrotation
											End Site
											{
												OFFSET -0.415260 3.926476 -0.049563
											}
										}
									}
								}
								JOINT LeftHandIndex1
								{
									OFFSET 11.334419 -0.901459 3.706815
									CHANNELS 3 Xrotation Yrotation Zrotation
									JOINT LeftHandIndex2
									{
										OFFSET 3.283112 0.000000 0.000000
										CHANNELS 3 Xrotation Yrotation Zrotation
										JOINT LeftHandIndex3
										{
											OFFSET 3.323853 0.000000 0.000000
											CHANNELS 3 Xrotation Yrotation Zrotation
											End Site
											{
												OFFSET -1.135597 3.097809 0.402452
											}
										}
									}
								}
								JOINT LeftHandMiddle1
								{
									OFFSET 11.335861 0.000000 0.000000
									CHANNELS 3 Xrotation Yrotation Zrotation
									JOINT LeftHandMiddle2
									{
										OFFSET 3.410492 0.000000 0.000000
										CHANNELS 3 Xrotation Yrotation Zrotation
										JOINT LeftHandMiddle3
										{
											OFFSET 3.312172 0.000000 0.000000
											CHANNELS 3 Xrotation Yrotation Zrotation
											End Site
											{
												OFFSET -1.150200 3.080154 0.400270
											}
										}
									}
								}
								JOINT LeftHandRing1
								{
									OFFSET 11.514786 -0.013176 -3.003090
									CHANNELS 3 Xrotation Yrotation Zrotation
									JOINT LeftHandRing2
									{
										OFFSET 3.053307 0.000000 0.000000
										CHANNELS 3 Xrotation Yrotation Zrotation
										JOINT LeftHandRing3
										{
											OFFSET 3.295807 0.000000 0.000000
											CHANNELS 3 Xrotation Yrotation Zrotation
											End Site
											{
												OFFSET -1.281006 3.013344 0.375733
											}
										}
									}
								}
								JOINT LeftHandPinky1
								{
									OFFSET 10.518692 -0.960396 -5.730441
									CHANNELS 3 Xrotation Yrotation Zrotation
									JOINT LeftHandPinky2
									{
										OFFSET 2.861649 0.000000 0.000000
										CHANNELS 3 Xrotation Yrotation Zrotation
										JOINT LeftHandPinky3
										{
											OFFSET 2.863380 0.000000 0.000000
											CHANNELS 3 Xrotation Yrotation Zrotation
											End Site
											{
												OFFSET -0.843597 2.711159 0.369971
											}
										}
									}
								}
							}
							JOINT LSleeve
							{
								OFFSET 6.676277 -0.344902 -1.011730
								CHANNELS 3 Xrotation Yrotation Zrotation
								End Site
								{
									OFFSET 0.000000 14.885353 0.000000
								}
							}
						}
					}
				}
				JOINT RightShoulder
				{
					OFFSET -6.197800 13.665199 -4.064700
					CHANNELS 3 Xrotation Yrotation Zrotation
					JOINT RightArm
					{
						OFFSET -7.778100 -0.187103 -1.709300
						CHANNELS 3 Xrotation Yrotation Zrotation
						JOINT RightForeArm
						{
							OFFSET -22.049376 0.000000 0.000000
							CHANNELS 3 Xrotation Yrotation Zrotation
							JOINT RightHand
							{
								OFFSET -23.009392 0.000000 0.000000
								CHANNELS 3 Xrotation Yrotation Zrotation
								JOINT RightHandThumb1
								{
									OFFSET -3.507191 -2.063065 3.133727
									CHANNELS 3 Xrotation Yrotation Zrotation
									JOINT RightHandThumb2
									{
										OFFSET -3.101337 -1.790558 1.790558
										CHANNELS 3 Xrotation Yrotation Zrotation
										JOINT RightHandThumb3
										{
											OFFSET -3.058640 -1.765907 1.765906
											CHANNELS 3 Xrotation Yrotation Zrotation
											End Site
											{
												OFFSET 0.415260 3.926476 -0.049563
											}
										}
									}
								}
								JOINT RightHandIndex1
								{
									OFFSET -11.334419 -0.901459 3.706815
									CHANNELS 3 Xrotation Yrotation Zrotation
									JOINT RightHandIndex2
									{
										OFFSET -3.283112 0.000000 0.000000
										CHANNELS 3 Xrotation Yrotation Zrotation
										JOINT RightHandIndex3
										{
											OFFSET -3.323853 0.000000 0.000000
											CHANNELS 3 Xrotation Yrotation Zrotation
											End Site
											{
												OFFSET 1.135597 3.097809 0.402452
											}
										}
									}
								}
								JOINT RightHandMiddle1
								{
									OFFSET -11.335861 0.000000 0.000000
									CHANNELS 3 Xrotation Yrotation Zrotation
									JOINT RightHandMiddle2
									{
										OFFSET -3.410492 0.000000 0.000000
										CHANNELS 3 Xrotation Yrotation Zrotation
										JOINT RightHandMiddle3
										{
											OFFSET -3.312172 0.000000 0.000000
											CHANNELS 3 Xrotation Yrotation Zrotation
											End Site
											{
												OFFSET 1.150200 3.080154 0.400270
											}
										}
									}
								}
								JOINT RightHandRing1
								{
									OFFSET -11.514786 -0.013176 -3.003090
									CHANNELS 3 Xrotation Yrotation Zrotation
									JOINT RightHandRing2
									{
										OFFSET -3.053307 0.000000 0.000000
										CHANNELS 3 Xrotation Yrotation Zrotation
										JOINT RightHandRing3
										{
											OFFSET -3.295807 0.000000 0.000000
											CHANNELS 3 Xrotation Yrotation Zrotation
											End Site
											{
												OFFSET 1.281006 3.013344 0.375733
											}
										}
									}
								}
								JOINT RightHandPinky1
								{
									OFFSET -10.518692 -0.960396 -5.730441
									CHANNELS 3 Xrotation Yrotation Zrotation
									JOINT RightHandPinky2
									{
										OFFSET -2.861649 0.000000 0.000000
										CHANNELS 3 Xrotation Yrotation Zrotation
										JOINT RightHandPinky3
										{
											OFFSET -2.863380 0.000000 0.000000
											CHANNELS 3 Xrotation Yrotation Zrotation
											End Site
											{
												OFFSET 0.843597 2.711159 0.369971
											}
										}
									}
								}
							}
							JOINT RSleeve
							{
								OFFSET -6.676277 -0.344902 -1.011730
								CHANNELS 3 Xrotation Yrotation Zrotation
								End Site
								{
									OFFSET 0.000000 14.885353 0.000000
								}
							}
						}
					}
				}
				JOINT Backpack
				{
					OFFSET 0.000000 -2.471497 36.677502
					CHANNELS 3 Xrotation Yrotation Zrotation
					End Site
					{
						OFFSET 0.000000 20.427315 0.000000
					}
				}
				JOINT Hood
				{
					OFFSET 0.000000 18.754097 -10.431000
					CHANNELS 3 Xrotation Yrotation Zrotation
					JOINT Hood1
					{
						OFFSET 0.000000 -5.011002 -7.685901
						CHANNELS 3 Xrotation Yrotation Zrotation
						End Site
						{
							OFFSET 0.000000 9.175140 0.000000
						}
					}
				}
				JOINT LHoodieString
				{
					OFFSET 5.250500 16.397697 3.089900
					CHANNELS 3 Xrotation Yrotation Zrotation
					JOINT LHoodieString1
					{
						OFFSET 0.257700 -6.364304 3.694600
						CHANNELS 3 Xrotation Yrotation Zrotation
						JOINT LHoodieString2
						{
							OFFSET 0.000000 -9.643799 2.679100
							CHANNELS 3 Xrotation Yrotation Zrotation
							End Site
							{
								OFFSET 0.000000 10.009018 0.000000
							}
						}
					}
				}
				JOINT RHoodieString
				{
					OFFSET -5.250500 16.397697 3.089900
					CHANNELS 3 Xrotation Yrotation Zrotation
					JOINT RHoodieString1
					{
						OFFSET -0.257700 -6.364304 3.694600
						CHANNELS 3 Xrotation Yrotation Zrotation
						JOINT RHoodieString2
						{
							OFFSET 0.000000 -9.643799 2.679100
							CHANNELS 3 Xrotation Yrotation Zrotation
							End Site
							{
								OFFSET 0.000000 10.009018 0.000000
							}
						}
					}
				}
			}
			JOINT LBackpack_Strap
			{
				OFFSET 15.223200 -7.719803 -6.610900
				CHANNELS 3 Xrotation Yrotation Zrotation
				End Site
				{
					OFFSET 0.000000 16.040596 0.000000
				}
			}
			JOINT RBackpack_Strap
			{
				OFFSET -15.223000 -7.719803 -6.610900
				CHANNELS 3 Xrotation Yrotation Zrotation
				End Site
				{
					OFFSET 0.000000 16.040596 0.000000
				}
			}
		}
	}
	JOINT BoyFacialAnim_Joint
	{
		OFFSET 1.000000 -82.208099 -1.550900
		CHANNELS 3 Xrotation Yrotation Zrotation
		End Site
		{
			OFFSET 0.000000 30.012791 0.000000
		}
	}
}
MOTION
Frames: 5
Frame Time: 0.016667
0.460264 81.901749 -0.765660 2.912558 -28.989358 1.159686 0.000000 -0.000000 0.000000 -17.358258 18.227786 10.846905 16.414051 13.218982 -0.947395 -1.370063 -4.092930 -4.997709 -0.000000 -0.000000 0.000000 -0.000000 -0.000000 -0.000000 0.000000 0.000000 -0.000000 -8.106602 -1.525504 -9.109888 10.362674 9.489840 0.825373 -5.501121 -0.869720 7.456319 -0.000000 -0.000001 -0.000000 -0.000000 -0.000001 -0.000000 0.000001 -0.000001 -0.000000 7.836167 -0.359799 -2.651713 1.099252 -0.880573 2.383463 1.108680 -0.590439 2.446366 -3.841835 18.019058 -6.496490 -6.332744 13.021565 0.301528 -0.000000 -0.000000 -0.000000 -0.000000 -0.000000 -0.000000 -0.000000 -0.000000 -0.000000 -0.057386 -8.759447 -0.061006 -55.250821 0.329473 -41.449358 11.584384 -65.827301 13.005511 -50.191034 12.352928 4.610797 17.551622 -5.699200 -12.932300 10.850468 26.127721 8.644841 -0.000000 0.000000 0.000000 13.980919 1.201546 -55.004381 0.370806 1.161741 -65.441880 -0.000001 0.000000 -0.000003 7.504743 1.174492 -63.778503 1.807816 1.475669 -64.567937 -0.000002 0.000000 0.000000 8.574326 2.179131 -75.148999 -0.207659 1.009281 -57.855049 -0.000000 0.000001 0.000003 10.030088 13.637027 -84.750244 0.877106 0.062321 -64.595517 -0.000001 0.000000 -0.000000 0.000001 0.000002 0.000001 4.849303 7.760145 5.560459 -0.933455 -2.176911 61.845642 11.299288 18.943576 -3.987581 -0.459219 6.620096 5.830219 15.788387 -2.734507 -17.205778 -2.198340 -31.113564 7.361242 0.000001 -0.000001 0.000000 2.382179 -3.656541 8.488162 -2.150637 -2.471235 18.673300 -0.000000 0.000001 0.000002 -1.979718 -5.703093 13.662272 0.280396 -5.098940 26.988051 -0.000000 -0.000000 -0.000000 -3.257599 -8.560618 11.770088 4.036121 -4.060211 33.262956 -0.000000 0.000000 0.000000 -6.474156 -11.347984 23.260721 10.715062 -2.557679 34.822644 0.000000 -0.000000 -0.000005 -0.000000 -0.000000 -0.000001 -0.000000 -0.000002 -0.000000 -0.000000 -0.000002 -0.000000 -0.000000 -0.000002 -0.000000 -0.000000 -0.000002 -0.000000 -0.000000 -0.000002 -0.000000 -0.000001 -0.000000 -0.000001 -0.000000 -0.000002 -0.000000 -0.000000 -0.000002 -0.000000 -0.000001 -0.000000 -0.000001 0.000000 -0.000001 -0.000000 0.000000 -0.000001 -0.000000 0.000000 -0.000000 0.000000 
0.306315 81.688538 -0.589474 3.089469 -27.951579 1.281721 0.000000 -0.000001 0.000000 -18.400873 17.641578 10.990608 18.156009 12.381621 -1.062999 -2.251456 -3.861730 -5.114431 0.000000 0.000000 0.000000 0.000000 0.000000 0.000000 0.000000 -0.000001 -0.000001 -8.982232 -1.410779 -9.171297 12.773448 9.005680 0.785665 -7.083457 -1.365738 7.248589 -0.000000 -0.000001 0.000000 -0.000000 -0.000001 0.000000 0.000000 -0.000003 -0.000000 7.586003 -0.117124 -2.926311 1.179880 -0.587873 2.428845 1.179491 -0.331352 2.447598 -4.361380 17.503038 -6.286969 -6.658287 12.494608 0.882710 0.000000 0.000000 -0.000000 0.000000 0.000000 -0.000000 0.000000 0.000000 -0.000000 -0.156522 -7.613170 -0.517557 -54.992875 2.359950 -39.858856 14.183525 -68.506517 15.203509 -50.021112 11.836317 3.695129 17.551622 -5.699197 -12.932296 10.850464 26.127717 8.644841 -0.000001 0.000001 -0.000000 13.980918 1.201550 -55.004381 0.370809 1.161737 -65.441880 0.000000 0.000001 -0.000002 7.504744 1.174496 -63.778503 1.807814 1.475670 -64.567937 0.000001 0.000000 -0.000005 8.574327 2.179131 -75.149006 -0.207654 1.009282 -57.855056 -0.000000 0.000000 -0.000000 10.030088 13.637028 -84.750244 0.877105 0.062323 -64.595524 -0.000001 0.000000 -0.000000 0.000002 -0.000000 -0.000001 4.812132 8.119673 5.688568 -0.408749 -2.451832 61.988516 12.244017 18.822502 -4.559240 -0.536307 7.009251 5.751531 15.835309 -2.735884 -17.119546 -2.264934 -31.017668 7.352469 0.000000 -0.000002 0.000001 2.381964 -3.658124 8.566163 -2.150600 -2.472780 18.751239 -0.000000 0.000000 0.000002 -1.979311 -5.704402 13.740285 0.282755 -5.099367 27.066141 -0.000000 -0.000000 -0.000000 -3.258048 -8.562276 11.847969 4.035925 -4.062108 33.341128 -0.000001 -0.000001 0.000000 -6.485082 -11.390089 23.332684 10.716265 -2.558944 34.900904 0.000000 -0.000000 0.000002 -0.000000 -0.000000 0.000000 -0.000000 0.000001 -0.000000 -0.000000 0.000001 -0.000000 -0.000000 0.000001 -0.000000 -0.000000 0.000001 -0.000000 -0.000000 0.000001 -0.000001 -0.000000 0.000001 -0.000000 -0.000000 0.000001 -0.000000 -0.000000 0.000001 -0.000001 -0.000000 0.000001 -0.000000 -0.000000 0.000000 0.000000 -0.000000 0.000000 0.000000 0.000000 -0.000001 0.000000 
0.160432 81.476822 -0.396125 3.262316 -26.750226 1.357555 0.000000 0.000001 -0.000000 -19.428483 17.063496 11.122598 19.793222 11.366668 -1.190355 -3.078947 -3.623872 -5.150931 0.000000 0.000000 -0.000000 0.000000 0.000000 -0.000000 0.000000 -0.000000 -0.000001 -9.621502 -1.371594 -9.187188 14.799579 8.866185 0.774391 -8.510831 -2.331133 7.000429 0.000000 0.000001 0.000000 0.000000 0.000001 0.000000 -0.000000 -0.000000 -0.000000 7.263187 0.185166 -3.098857 1.305102 -0.239090 2.460832 1.292173 -0.018790 2.426596 -4.964533 16.791067 -6.023528 -6.880096 11.820290 1.376510 0.000000 0.000000 0.000000 0.000000 0.000000 0.000000 0.000000 0.000000 0.000000 -0.257672 -6.543723 -1.038121 -54.949627 4.638172 -38.362662 19.162552 -71.200843 19.813704 -49.825380 10.829548 2.949319 17.551622 -5.699202 -12.932297 10.850460 26.127712 8.644837 -0.000002 -0.000000 -0.000001 13.980919 1.201548 -55.004381 0.370809 1.161738 -65.441880 -0.000000 -0.000001 -0.000002 7.504744 1.174493 -63.778503 1.807817 1.475667 -64.567937 0.000002 0.000001 0.000002 8.574326 2.179128 -75.148999 -0.207658 1.009282 -57.855056 -0.000002 0.000002 -0.000002 10.030088 13.637028 -84.750244 0.877104 0.062323 -64.595524 -0.000000 0.000001 -0.000004 0.000000 0.000002 -0.000001 4.776425 8.473872 5.863055 0.334842 -2.740977 62.151183 13.457526 18.694465 -5.471688 -0.738291 7.226688 5.672264 15.960342 -2.740605 -16.876667 -2.449900 -30.750762 7.328912 -0.000000 -0.000006 -0.000001 2.381017 -3.658319 8.783366 -2.150650 -2.472926 18.968431 -0.000001 0.000000 0.000002 -1.978077 -5.708029 13.957451 0.282846 -5.100870 27.283375 -0.000000 0.000000 -0.000000 -3.259157 -8.562346 12.064996 4.035359 -4.062297 33.558331 -0.000000 -0.000001 0.000000 -6.514878 -11.507479 23.533048 10.719502 -2.558911 35.118200 0.000001 0.000000 -0.000007 0.000000 0.000000 0.000003 0.000001 0.000001 -0.000000 0.000001 0.000001 -0.000000 0.000001 0.000001 -0.000000 0.000001 0.000001 -0.000000 0.000001 0.000001 -0.000001 0.000001 0.000001 -0.000000 0.000001 0.000001 -0.000000 0.000001 0.000001 -0.000001 0.000001 0.000001 -0.000000 0.000000 -0.000000 0.000000 0.000000 -0.000000 0.000000 0.000000 0.000001 -0.000000 
0.022883 81.268150 -0.186979 3.425912 -25.388484 1.391058 0.000000 0.000001 -0.000000 -20.439259 16.530646 11.255287 21.360966 11.662516 -1.216612 -3.869886 -4.894030 -5.328225 0.000000 0.000000 0.000000 0.000000 0.000000 0.000000 -0.000001 -0.000001 -0.000000 -10.064242 -1.400803 -9.167398 16.536824 8.423398 0.738292 -9.824105 -3.128773 6.841421 -0.000000 -0.000001 0.000000 -0.000000 -0.000001 0.000000 0.000000 -0.000002 0.000001 6.887611 0.532507 -3.181784 1.460488 0.152814 2.478274 1.433638 0.334549 2.384510 -5.614539 15.907838 -5.715404 -7.022092 11.021185 1.798167 -0.000000 -0.000000 0.000000 -0.000000 -0.000000 0.000000 -0.000000 -0.000000 0.000000 -0.348969 -5.538392 -1.589100 -55.141569 7.041876 -36.915444 26.186527 -73.767088 26.509820 -49.617875 9.602803 2.265822 17.551622 -5.699194 -12.932299 10.850462 26.127717 8.644841 -0.000003 0.000000 -0.000001 13.980919 1.201551 -55.004384 0.370806 1.161740 -65.441880 -0.000001 0.000001 -0.000002 7.504744 1.174499 -63.778503 1.807813 1.475668 -64.567937 -0.000000 0.000001 0.000000 8.574327 2.179130 -75.148999 -0.207655 1.009283 -57.855056 0.000001 0.000000 -0.000002 10.030088 13.637028 -84.750244 0.877106 0.062322 -64.595517 0.000000 0.000000 -0.000002 0.000000 0.000001 -0.000001 4.736008 8.868327 6.075510 1.246724 -3.107692 62.321262 14.852977 18.537200 -6.632877 -1.106520 7.329466 5.646191 16.151261 -2.746688 -16.506602 -2.730668 -30.343833 7.294865 0.000002 -0.000001 -0.000002 2.379602 -3.658629 9.114399 -2.150754 -2.473113 19.299599 0.000000 0.000000 -0.000000 -1.976196 -5.708185 14.288672 0.283039 -5.103087 27.614455 -0.000001 -0.000000 -0.000000 -3.260857 -8.562470 12.395843 4.034533 -4.062550 33.889346 -0.000001 0.000000 -0.000001 -6.558729 -11.686805 23.838349 10.719598 -2.559034 35.449283 0.000001 -0.000000 -0.000003 0.000000 -0.000000 0.000000 0.000000 -0.000000 0.000000 0.000000 -0.000000 0.000000 0.000000 -0.000000 0.000000 0.000000 -0.000000 0.000000 0.000000 -0.000000 0.000000 0.000000 -0.000002 0.000001 0.000000 -0.000000 0.000000 0.000000 -0.000000 0.000000 0.000000 -0.000002 0.000001 -0.000001 0.000000 0.000000 -0.000001 0.000000 0.000000 0.000000 0.000001 -0.000000 
-0.097872 81.067566 0.052422 3.570536 -23.710233 1.348444 0.000000 -0.000000 0.000000 -21.468289 16.078419 11.392602 22.808730 10.844826 -1.323879 -4.593407 -5.457424 -5.266794 -0.000000 -0.000000 -0.000000 -0.000000 -0.000000 -0.000000 -0.000000 0.000000 -0.000000 -10.236700 -1.543002 -9.097271 17.952377 6.723516 0.603882 -11.010884 -2.966451 7.045824 0.000000 0.000000 -0.000000 0.000000 0.000000 -0.000000 -0.000000 0.000001 0.000000 6.423314 0.955633 -3.097159 1.662626 0.618025 2.465394 1.619632 0.757043 2.301281 -6.324931 14.707614 -5.323787 -7.042617 9.995198 2.091716 -0.000000 -0.000000 -0.000000 -0.000000 -0.000000 -0.000000 -0.000000 -0.000000 -0.000000 -0.430487 -4.648617 -2.168049 -55.715827 9.563782 -35.523790 35.115290 -76.191238 35.108607 -49.399657 8.212393 1.585884 17.551622 -5.699200 -12.932297 10.850468 26.127716 8.644839 -0.000000 -0.000001 -0.000001 13.980920 1.201548 -55.004384 0.370808 1.161738 -65.441873 -0.000002 -0.000000 -0.000002 7.504744 1.174495 -63.778503 1.807817 1.475669 -64.567930 0.000000 -0.000002 -0.000004 8.574327 2.179129 -75.149006 -0.207656 1.009282 -57.855056 -0.000003 -0.000000 -0.000000 10.030088 13.637028 -84.750244 0.877105 0.062322 -64.595517 -0.000002 0.000001 -0.000000 0.000002 0.000001 -0.000000 4.681179 9.389219 6.355684 2.453028 -3.699840 62.477885 16.528079 18.324182 -8.202578 -1.848603 7.260509 5.774322 16.393810 -2.752489 -16.037682 -3.084434 -29.827825 7.255411 -0.000000 -0.000002 0.000003 2.377803 -3.659014 9.533913 -2.150765 -2.473335 19.719221 -0.000000 0.000000 0.000004 -1.976147 -5.708371 14.708365 0.283242 -5.105822 28.034073 -0.000002 -0.000001 0.000001 -3.262925 -8.562615 12.815175 4.033548 -4.062823 34.308959 -0.000000 -0.000001 0.000000 -6.611492 -11.914742 24.225279 10.719709 -2.559193 35.869077 0.000000 0.000001 -0.000001 -0.000000 0.000000 -0.000003 0.000000 0.000001 -0.000000 0.000000 0.000001 -0.000000 0.000000 0.000001 -0.000000 0.000000 0.000001 -0.000000 0.000000 0.000001 -0.000000 0.000001 -0.000001 -0.000000 0.000000 0.000001 -0.000000 0.000000 0.000001 -0.000000 0.000001 -0.000001 -0.000000 0.000001 -0.000001 -0.000000 0.000001 -0.000001 -0.000000 0.000000 -0.000000 0.000000 
